<?xml version="1.0" standalone="no"?>
<!DOCTYPE svg PUBLIC "-//W3C//DTD SVG 20010904//EN"
 "http://www.w3.org/TR/2001/REC-SVG-20010904/DTD/svg10.dtd">
<svg version="1.0" xmlns="http://www.w3.org/2000/svg"
 width="564.000000pt" height="423.000000pt" viewBox="0 0 564.000000 423.000000"
 preserveAspectRatio="xMidYMid meet">

<g transform="translate(0.000000,423.000000) scale(0.100000,-0.100000)"
fill="#000000" stroke="none">
<path d="M2166 2091 l-326 -651 405 0 c223 0 405 3 405 8 -1 4 -24 52 -53 107
l-52 100 -172 3 c-95 1 -173 5 -173 7 0 3 65 136 145 296 l146 290 201 -406
202 -405 123 0 c68 0 123 2 123 3 0 2 -146 295 -324 652 l-325 648 -325 -652z"/>
<path d="M2988 2725 c-64 -16 -182 -67 -192 -83 -3 -6 15 -53 40 -105 l47 -93
71 35 c69 35 74 36 186 36 105 0 120 -2 174 -28 72 -33 135 -84 173 -137 l28
-40 118 0 c135 0 131 -4 80 91 -85 159 -246 282 -426 324 -77 18 -223 18 -299
0z"/>
<path d="M3062 2083 c2 -5 27 -54 56 -110 l52 -103 170 0 c104 0 170 -4 170
-10 0 -23 -119 -128 -175 -155 -33 -16 -61 -30 -63 -31 -3 -2 85 -184 93 -192
9 -9 137 63 192 108 132 107 233 303 233 452 l0 48 -366 0 c-201 0 -364 -3
-362 -7z"/>
<path d="M616 1065 c8 -20 41 -38 55 -29 7 4 -1 14 -18 25 -34 23 -44 24 -37
4z"/>
<path d="M735 1004 c7 -15 11 -34 8 -43 -3 -9 -1 -12 4 -6 4 6 35 11 68 11
113 3 130 7 54 13 -56 5 -83 12 -104 29 -37 29 -47 28 -30 -4z"/>
<path d="M2290 901 c0 -6 0 -14 0 -18 0 -5 12 -9 28 -10 37 -2 83 -13 109 -25
11 -6 27 -8 33 -6 7 2 -21 15 -61 30 -41 14 -82 29 -91 33 -11 4 -18 3 -18 -4z"/>
<path d="M3128 893 c9 -3 10 -9 2 -18 -8 -9 -5 -12 12 -10 13 1 30 3 38 4 17
1 -36 31 -54 30 -7 0 -6 -3 2 -6z"/>
<path d="M3383 795 c3 -23 43 -33 60 -16 8 8 2 11 -20 11 -17 0 -34 6 -37 13
-3 6 -5 3 -3 -8z"/>
<path d="M2315 724 c-29 -14 -28 -15 34 -9 35 3 82 6 105 6 l41 1 -40 9 c-58
12 -106 9 -140 -7z"/>
<path d="M2540 708 c19 -5 41 -16 47 -25 19 -25 183 -18 183 8 0 9 -54 17
-175 22 -69 4 -82 3 -55 -5z"/>
<path d="M2980 709 c0 -5 5 -7 10 -4 6 3 10 8 10 11 0 2 -4 4 -10 4 -5 0 -10
-5 -10 -11z"/>
<path d="M1535 675 c-6 -5 -17 -11 -25 -13 -8 -2 -18 -9 -22 -15 -8 -14 27
-54 54 -63 17 -5 116 14 195 37 42 13 75 -3 71 -34 -5 -39 25 -28 87 29 33 30
54 52 47 49 -7 -4 -20 -1 -29 6 -19 16 -360 20 -378 4z"/>
<path d="M3003 683 c9 -2 23 -2 30 0 6 3 -1 5 -18 5 -16 0 -22 -2 -12 -5z"/>
<path d="M3077 669 c6 -6 33 -12 60 -13 30 -1 56 -8 66 -17 17 -17 132 -25
142 -10 2 5 24 4 47 -1 62 -13 67 -13 133 -5 97 12 165 29 165 42 0 8 -87 11
-312 13 -223 1 -309 -1 -301 -9z"/>
<path d="M1277 554 c-3 -3 -141 -16 -160 -16 -10 1 -48 -5 -85 -13 -45 -10
-68 -11 -73 -4 -3 6 -9 2 -12 -10 -2 -11 0 -21 7 -23 18 -6 177 9 219 20 50
13 157 -1 169 -22 12 -21 61 -20 100 0 27 14 29 18 14 26 -10 5 -15 17 -12 26
5 15 -4 17 -80 17 -47 0 -86 -1 -87 -1z"/>
<path d="M5335 540 c3 -5 14 -10 23 -10 15 0 15 2 2 10 -20 13 -33 13 -25 0z"/>
</g>
</svg>
